<svg width="183" height="181" viewBox="0 0 183 181" fill="none" xmlns="http://www.w3.org/2000/svg">
<path fill-rule="evenodd" clip-rule="evenodd" d="M28.875 8H154.125C165.654 8 175 17.2341 175 28.625V152.375C175 163.766 165.654 173 154.125 173H28.875C17.3461 173 8 163.766 8 152.375V28.625C8 17.2341 17.3461 8 28.875 8Z" stroke="#2A2E3B" stroke-width="15.3899" stroke-linecap="round" stroke-linejoin="round"/>
<path d="M8 49.25H175" stroke="#2A2E3B" stroke-width="15.3899" stroke-linecap="round" stroke-linejoin="round"/>
<path d="M91.5 100.812C97.2645 100.812 101.938 96.1954 101.938 90.5C101.938 84.8046 97.2645 80.1875 91.5 80.1875C85.7355 80.1875 81.0625 84.8046 81.0625 90.5C81.0625 96.1954 85.7355 100.812 91.5 100.812Z" fill="#2A2E3B"/>
<path d="M49.75 100.812C55.5145 100.812 60.1875 96.1954 60.1875 90.5C60.1875 84.8046 55.5145 80.1875 49.75 80.1875C43.9855 80.1875 39.3125 84.8046 39.3125 90.5C39.3125 96.1954 43.9855 100.812 49.75 100.812Z" fill="#2A2E3B"/>
<path d="M133.25 100.812C139.014 100.812 143.688 96.1954 143.688 90.5C143.688 84.8046 139.014 80.1875 133.25 80.1875C127.486 80.1875 122.812 84.8046 122.812 90.5C122.812 96.1954 127.486 100.812 133.25 100.812Z" fill="#2A2E3B"/>
<path d="M91.5 142.062C97.2645 142.062 101.938 137.445 101.938 131.75C101.938 126.055 97.2645 121.438 91.5 121.438C85.7355 121.438 81.0625 126.055 81.0625 131.75C81.0625 137.445 85.7355 142.062 91.5 142.062Z" fill="#2A2E3B"/>
<path d="M49.75 142.062C55.5145 142.062 60.1875 137.445 60.1875 131.75C60.1875 126.055 55.5145 121.438 49.75 121.438C43.9855 121.438 39.3125 126.055 39.3125 131.75C39.3125 137.445 43.9855 142.062 49.75 142.062Z" fill="#2A2E3B"/>
<path d="M133.25 142.062C139.014 142.062 143.688 137.445 143.688 131.75C143.688 126.055 139.014 121.438 133.25 121.438C127.486 121.438 122.812 126.055 122.812 131.75C122.812 137.445 127.486 142.062 133.25 142.062Z" fill="#2A2E3B"/>
</svg>
