<svg width="80" height="80" viewBox="0 0 80 80" fill="none" xmlns="http://www.w3.org/2000/svg">
<circle cx="40" cy="40" r="40" fill="#B3B3B3" fill-opacity="0.5"/>
<path d="M40 7.4082C30.9536 7.4082 23.5938 14.768 23.5938 23.8145C23.5938 32.8609 30.9536 40.2207 40 40.2207C49.0464 40.2207 56.4062 32.8609 56.4062 23.8145C56.4062 14.768 49.0464 7.4082 40 7.4082Z" fill="white"/>
<path d="M60.4125 50.9375C55.9209 46.3769 49.9664 43.8652 43.6458 43.8652H36.3542C30.0338 43.8652 24.0791 46.3769 19.5875 50.9375C15.1178 55.4759 12.6562 61.4665 12.6562 67.8062C12.6562 68.8129 13.4724 69.6291 14.4792 69.6291H65.5208C66.5276 69.6291 67.3438 68.8129 67.3438 67.8062C67.3438 61.4665 64.8822 55.4759 60.4125 50.9375Z" fill="white"/>
</svg>
