<svg width="40" height="40" viewBox="0 0 40 40" fill="none" xmlns="http://www.w3.org/2000/svg">
<circle cx="20" cy="20" r="20" fill="#B3B3B3" fill-opacity="0.5"/>
<path d="M20 3.70312C15.4768 3.70312 11.7969 7.38305 11.7969 11.9062C11.7969 16.4295 15.4768 20.1094 20 20.1094C24.5232 20.1094 28.2031 16.4295 28.2031 11.9062C28.2031 7.38305 24.5232 3.70312 20 3.70312Z" fill="white"/>
<path d="M30.2063 25.4658C27.9604 23.1855 24.9832 21.9297 21.8229 21.9297H18.1771C15.0169 21.9297 12.0396 23.1855 9.79373 25.4658C7.5589 27.735 6.32812 30.7303 6.32812 33.9002C6.32812 34.4035 6.73622 34.8116 7.23958 34.8116H32.7604C33.2638 34.8116 33.6719 34.4035 33.6719 33.9002C33.6719 30.7303 32.4411 27.735 30.2063 25.4658Z" fill="white"/>
</svg>
