<svg width="30" height="30" viewBox="0 0 30 30" fill="none" xmlns="http://www.w3.org/2000/svg">
<path d="M29.9986 24.3786C29.9983 24.3742 29.9984 24.3699 29.9979 24.3655C29.9964 24.3481 29.9938 24.3311 29.9903 24.3144C29.9899 24.3127 29.9894 24.3111 29.989 24.3094C29.9855 24.2941 29.9812 24.2791 29.9762 24.2644C29.9749 24.2605 29.9734 24.2567 29.9719 24.2528C29.967 24.2395 29.9614 24.2266 29.9553 24.214C29.9542 24.2118 29.9535 24.2095 29.9524 24.2072L27.6021 19.5714V4.31947C27.6021 3.85037 27.2205 3.46875 26.7514 3.46875H3.2485C2.77939 3.46875 2.39777 3.85037 2.39777 4.31947V19.5713L0.0475195 24.2072C0.0464063 24.2094 0.0457031 24.2117 0.0446484 24.2139C0.0384961 24.2265 0.0329883 24.2395 0.0280078 24.2527C0.026543 24.2566 0.0250781 24.2605 0.0237305 24.2644C0.01875 24.2791 0.0144141 24.2941 0.010957 24.3095C0.0106055 24.3111 0.0100781 24.3127 0.00972656 24.3142C0.00615234 24.331 0.00363281 24.348 0.00205078 24.3654C0.00164062 24.3698 0.00164063 24.3742 0.00140625 24.3785C0.000820313 24.3877 0 24.3967 0 24.4059V25.5207C0 26.0779 0.453223 26.5311 1.01039 26.5311H28.9896C29.5468 26.5311 30 26.0779 30 25.5207V24.4059C30 24.3967 29.9992 24.3877 29.9986 24.3786ZM3.27674 4.34777H26.7233V19.237H3.27674V4.34777ZM3.10717 20.1158H26.8928L28.845 23.9664H19.1899L18.7053 22.2093C18.6066 21.8515 18.2786 21.6017 17.9075 21.6017H12.0923C11.7213 21.6017 11.3932 21.8515 11.2946 22.2092L10.81 23.9664H1.15494L3.10717 20.1158ZM18.2782 23.9665H11.7218L12.1315 22.4807H17.8685L18.2782 23.9665ZM29.1211 25.5207C29.1211 25.5932 29.0621 25.6522 28.9896 25.6522H1.01039C0.93791 25.6522 0.878906 25.5932 0.878906 25.5207V24.8453H29.1211V25.5207Z" fill="#3FA9F5"/>
<path d="M25.3469 12.5234C25.1042 12.5234 24.9075 12.7201 24.9075 12.9629V17.4192H5.09375V12.9629C5.09375 12.7201 4.89705 12.5234 4.6543 12.5234C4.41154 12.5234 4.21484 12.7201 4.21484 12.9629V17.609C4.21484 17.989 4.52393 18.2981 4.90396 18.2981H25.0973C25.4773 18.2981 25.7864 17.9891 25.7864 17.609V12.9629C25.7864 12.7203 25.5897 12.5234 25.3469 12.5234Z" fill="#3FA9F5"/>
<path d="M25.0972 5.28906H4.90396C4.52398 5.28906 4.21484 5.59814 4.21484 5.97818V10.6243C4.21484 10.8671 4.41154 11.0638 4.6543 11.0638C4.89705 11.0638 5.09375 10.8671 5.09375 10.6243V6.16797H24.9075V10.6243C24.9075 10.8671 25.1042 11.0638 25.3469 11.0638C25.5897 11.0638 25.7864 10.8671 25.7864 10.6243V5.97818C25.7864 5.59809 25.4773 5.28906 25.0972 5.28906Z" fill="#3FA9F5"/>
</svg>
