<svg width="30" height="30" viewBox="0 0 30 30" fill="none" xmlns="http://www.w3.org/2000/svg">
<g clip-path="url(#clip0_1422_76870)">
<path d="M15 0C6.71572 0 0 6.71572 0 15C0 23.2843 6.71572 30 15 30C23.2843 30 30 23.2843 30 15C30 6.71572 23.2843 0 15 0ZM15 28.125C7.75125 28.125 1.875 22.2488 1.875 15C1.875 7.75125 7.75125 1.875 15 1.875C22.2488 1.875 28.125 7.75125 28.125 15C28.125 22.2488 22.2488 28.125 15 28.125Z" fill="#3FA9F5"/>
<path d="M15 16.875C16.0355 16.875 16.875 16.0355 16.875 15C16.875 13.9645 16.0355 13.125 15 13.125C13.9645 13.125 13.125 13.9645 13.125 15C13.125 16.0355 13.9645 16.875 15 16.875Z" fill="#3FA9F5"/>
<path d="M21.5625 16.875C22.598 16.875 23.4375 16.0355 23.4375 15C23.4375 13.9645 22.598 13.125 21.5625 13.125C20.527 13.125 19.6875 13.9645 19.6875 15C19.6875 16.0355 20.527 16.875 21.5625 16.875Z" fill="#3FA9F5"/>
<path d="M8.4375 16.875C9.47303 16.875 10.3125 16.0355 10.3125 15C10.3125 13.9645 9.47303 13.125 8.4375 13.125C7.40197 13.125 6.5625 13.9645 6.5625 15C6.5625 16.0355 7.40197 16.875 8.4375 16.875Z" fill="#3FA9F5"/>
</g>
<defs>
<clipPath id="clip0_1422_76870">
<rect width="30" height="30" fill="white"/>
</clipPath>
</defs>
</svg>
