<svg width="204" height="183" viewBox="0 0 204 183" fill="none" xmlns="http://www.w3.org/2000/svg">
<path d="M101.754 9C123.709 9 141.506 23.7746 141.506 42V53C141.506 71.2254 123.709 86 101.754 86C79.7999 86 62.0024 71.2254 62.0024 53V42C62.0024 23.7746 79.7999 9 101.754 9ZM194.508 163C194.508 160.33 194.508 157.66 194.508 154.99C194.508 119.94 145.663 97 101.754 97C57.8456 97 9 119.94 9 154.99V163C9 169.075 14.9325 174 22.2506 174H181.258C188.576 174 194.508 169.075 194.508 163Z" stroke="#2A2E3B" stroke-width="17.5885" stroke-linecap="round" stroke-linejoin="round"/>
</svg>
