<svg width="30" height="30" viewBox="0 0 30 30" fill="none" xmlns="http://www.w3.org/2000/svg">
<g clip-path="url(#clip0_1422_76822)">
<path d="M29.4141 28.1744H27.6041V18.7204C27.6041 18.3968 27.3417 18.1345 27.0182 18.1345C26.6946 18.1345 26.4322 18.3968 26.4322 18.7204V28.1744H22.2247V23.3024C22.2247 22.9789 21.9623 22.7165 21.6388 22.7165H17.818C17.4945 22.7165 17.2321 22.9789 17.2321 23.3024V28.1744H13.1231V13.2052V4.05414H26.4322V13.547C26.4322 13.8705 26.6946 14.1329 27.0182 14.1329C27.3417 14.1329 27.6041 13.8705 27.6041 13.547V3.4682C27.6041 3.14465 27.3417 2.88227 27.0182 2.88227H25.5766V1.23437C25.5766 0.91082 25.3142 0.648438 24.9906 0.648438H14.7125C14.389 0.648438 14.1266 0.91082 14.1266 1.23437V2.88227H12.5372C12.2137 2.88227 11.9513 3.14465 11.9513 3.4682V12.6193H7.3582V10.7798C7.3582 10.4563 7.09582 10.1939 6.77227 10.1939H2.73469C2.41113 10.1939 2.14875 10.4563 2.14875 10.7798V13.2052V28.1744H0.585938C0.262383 28.1744 0 28.4368 0 28.7603C0 29.0839 0.262383 29.3462 0.585938 29.3462H29.4141C29.7376 29.3462 30 29.0839 30 28.7603C30 28.4368 29.7376 28.1744 29.4141 28.1744V28.1744ZM15.2985 1.82031H24.4048V2.88227H15.2985V1.82031ZM3.32063 11.3658H6.18633V12.6193H3.32063V11.3658ZM8.31205 28.1741H6.88605V26.0819H8.31205V28.1741ZM11.9513 28.1744H9.48398V25.496C9.48398 25.1724 9.2216 24.9101 8.89805 24.9101H6.30018C5.97662 24.9101 5.71424 25.1724 5.71424 25.496V28.1744H3.32063V13.7911H6.77227H11.9513V28.1744ZM21.0529 28.1741H18.404V23.8883H21.0529V28.1741Z" fill="#3FA9F5"/>
<path d="M27.5065 15.8783C27.2158 15.4425 26.5185 15.5993 26.4403 16.1177C26.3607 16.6458 27.0062 16.9946 27.4057 16.6444C27.6253 16.4519 27.6656 16.1211 27.5065 15.8783V15.8783Z" fill="#3FA9F5"/>
<path d="M18.7767 6.74219C18.7767 6.41863 18.5143 6.15625 18.1908 6.15625H15.707C15.3835 6.15625 15.1211 6.41863 15.1211 6.74219V9.22592C15.1211 9.54947 15.3835 9.81186 15.707 9.81186H18.1908C18.5143 9.81186 18.7767 9.54947 18.7767 9.22592V6.74219ZM17.6048 8.63992H16.293V7.32807H17.6048V8.63992Z" fill="#3FA9F5"/>
<path d="M24.2669 6.74219C24.2669 6.41863 24.0046 6.15625 23.681 6.15625H21.1973C20.8737 6.15625 20.6113 6.41863 20.6113 6.74219V9.22592C20.6113 9.54947 20.8737 9.81186 21.1973 9.81186H23.681C24.0046 9.81186 24.2669 9.54947 24.2669 9.22592V6.74219ZM23.0951 8.63992H21.7832V7.32807H23.0951V8.63992Z" fill="#3FA9F5"/>
<path d="M18.7767 11.8672C18.7767 11.5436 18.5143 11.2812 18.1908 11.2812H15.707C15.3835 11.2812 15.1211 11.5436 15.1211 11.8672V14.3509C15.1211 14.6745 15.3835 14.9369 15.707 14.9369H18.1908C18.5143 14.9369 18.7767 14.6745 18.7767 14.3509V11.8672ZM17.6048 13.765H16.293V12.4531H17.6048V13.765Z" fill="#3FA9F5"/>
<path d="M24.2669 11.8672C24.2669 11.5436 24.0046 11.2812 23.681 11.2812H21.1973C20.8737 11.2812 20.6113 11.5436 20.6113 11.8672V14.3509C20.6113 14.6745 20.8737 14.9369 21.1973 14.9369H23.681C24.0046 14.9369 24.2669 14.6745 24.2669 14.3509V11.8672ZM23.0951 13.765H21.7832V12.4531H23.0951V13.765Z" fill="#3FA9F5"/>
<path d="M18.1908 16.4062H15.707C15.3835 16.4062 15.1211 16.6686 15.1211 16.9922V19.4759C15.1211 19.7995 15.3835 20.0619 15.707 20.0619H18.1908C18.5143 20.0619 18.7767 19.7995 18.7767 19.4759V16.9922C18.7767 16.6686 18.5144 16.4062 18.1908 16.4062ZM17.6048 18.89H16.293V17.5781H17.6048V18.89Z" fill="#3FA9F5"/>
<path d="M23.681 16.4062H21.1973C20.8737 16.4062 20.6113 16.6686 20.6113 16.9922V19.4759C20.6113 19.7995 20.8737 20.0619 21.1973 20.0619H23.681C24.0046 20.0619 24.2669 19.7995 24.2669 19.4759V16.9922C24.2669 16.6686 24.0046 16.4062 23.681 16.4062ZM23.0951 18.89H21.7832V17.5781H23.0951V18.89Z" fill="#3FA9F5"/>
<path d="M5.19336 15.1406C4.8698 15.1406 4.60742 15.403 4.60742 15.7266V23.0674C4.60742 23.3909 4.8698 23.6533 5.19336 23.6533C5.51691 23.6533 5.7793 23.3909 5.7793 23.0674V15.7266C5.7793 15.403 5.51691 15.1406 5.19336 15.1406Z" fill="#3FA9F5"/>
<path d="M7.59375 23.6533C7.9173 23.6533 8.17969 23.3909 8.17969 23.0674V15.7266C8.17969 15.403 7.9173 15.1406 7.59375 15.1406C7.27019 15.1406 7.00781 15.403 7.00781 15.7266V23.0674C7.00781 23.391 7.27014 23.6533 7.59375 23.6533Z" fill="#3FA9F5"/>
<path d="M9.99219 23.6533C10.3157 23.6533 10.5781 23.3909 10.5781 23.0674V15.7266C10.5781 15.403 10.3157 15.1406 9.99219 15.1406C9.66863 15.1406 9.40625 15.403 9.40625 15.7266V23.0674C9.40625 23.391 9.66857 23.6533 9.99219 23.6533Z" fill="#3FA9F5"/>
</g>
<defs>
<clipPath id="clip0_1422_76822">
<rect width="30" height="30" fill="white"/>
</clipPath>
</defs>
</svg>
