<svg width="30" height="30" viewBox="0 0 30 30" fill="none" xmlns="http://www.w3.org/2000/svg">
<g clip-path="url(#clip0_1422_76794)">
<path d="M23.2337 2.4606C20.7895 0.857818 17.9299 0.00523312 15.0071 0.00781836C6.72789 0.0157782 0.0159961 6.72114 8.47269e-06 15.0004C-0.00312103 17.9147 0.860757 20.7642 2.48184 23.1861L0.0580403 28.9915C-0.0908831 29.3635 0.0900156 29.7859 0.462086 29.9349C0.635161 30.0041 0.828305 30.0041 1.00145 29.9349L6.80687 27.5111C13.7244 32.0472 23.0094 30.1167 27.5455 23.1992C32.0817 16.2818 30.1512 6.99674 23.2337 2.4606ZM15.0217 28.5416C15.0168 28.5416 15.012 28.5416 15.0072 28.5416V28.5561H15.0071C12.2496 28.5344 9.56315 27.6794 7.30038 26.1033C7.18105 26.02 7.03948 25.9745 6.89402 25.9727C6.803 25.9547 6.70932 25.9547 6.61829 25.9727L2.07548 27.9175L3.97679 23.3893C4.07367 23.16 4.04632 22.897 3.9042 22.6926C2.30631 20.4461 1.4489 17.7572 1.45142 15.0004C1.44339 7.51372 7.50598 1.43814 14.9926 1.43011C22.4792 1.42208 28.5549 7.48467 28.5629 14.9713C28.5709 22.458 22.5083 28.5336 15.0217 28.5416Z" fill="#3FA9F5"/>
<path d="M19.6278 11.0707C19.3126 8.7742 17.3238 7.08012 15.0065 7.13407C12.5033 7.12604 10.4652 9.14456 10.4492 11.6478C10.4492 12.0486 10.7741 12.3735 11.1749 12.3735C11.5757 12.3735 11.9006 12.0486 11.9006 11.6478C11.9327 9.93279 13.349 8.56846 15.0641 8.60051C16.7792 8.63255 18.1434 10.0489 18.1114 11.764C18.0798 13.4562 16.6991 14.8115 15.0066 14.8118C14.6058 14.8118 14.2809 15.1367 14.2809 15.5375V18.7886C14.2809 19.1894 14.6058 19.5143 15.0066 19.5143C15.4074 19.5143 15.7323 19.1894 15.7323 18.7886V16.2052C18.2258 15.8631 19.9699 13.5642 19.6278 11.0707Z" fill="#3FA9F5"/>
<path d="M14.9466 22.9167C15.3853 22.9167 15.7409 22.5611 15.7409 22.1224C15.7409 21.6837 15.3853 21.3281 14.9466 21.3281C14.508 21.3281 14.1523 21.6837 14.1523 22.1224C14.1523 22.5611 14.508 22.9167 14.9466 22.9167Z" fill="#3FA9F5"/>
</g>
<defs>
<clipPath id="clip0_1422_76794">
<rect width="30" height="30" fill="white"/>
</clipPath>
</defs>
</svg>
