<svg width="18" height="18" viewBox="0 0 18 18" fill="none" xmlns="http://www.w3.org/2000/svg">
<g clip-path="url(#clip0_1904_52473)">
<path d="M4.96998 4.09329C4.71039 3.83349 4.28922 3.83349 4.02962 4.09329C3.06578 5.05713 2.59205 6.39982 2.72972 7.77731C2.76407 8.12048 3.05316 8.37627 3.39077 8.37627C3.41295 8.37627 3.43531 8.37515 3.45749 8.37293C3.82305 8.33637 4.08971 8.01026 4.05314 7.64495C3.95516 6.66603 4.28946 5.71417 4.96998 5.03362C5.22979 4.77406 5.22979 4.35285 4.96998 4.09329Z" fill="white"/>
<path d="M7.60345 0C3.41089 0 0 3.41089 0 7.60345C0 11.796 3.41089 15.2069 7.60345 15.2069C11.796 15.2069 15.2069 11.796 15.2069 7.60345C15.2069 3.41089 11.796 0 7.60345 0ZM7.60345 13.8768C4.14422 13.8768 1.33007 11.0627 1.33007 7.60345C1.33007 4.14422 4.14422 1.33007 7.60345 1.33007C11.0625 1.33007 13.8768 4.14422 13.8768 7.60345C13.8768 11.0627 11.0627 13.8768 7.60345 13.8768Z" fill="white"/>
<path d="M17.8051 16.8633L12.9726 12.0308C12.7128 11.771 12.2921 11.771 12.0323 12.0308C11.7725 12.2904 11.7725 12.7116 12.0323 12.9711L16.8648 17.8036C16.9947 17.9335 17.1647 17.9985 17.335 17.9985C17.5052 17.9985 17.6752 17.9335 17.8051 17.8036C18.0649 17.5441 18.0649 17.1229 17.8051 16.8633Z" fill="white"/>
</g>
<defs>
<clipPath id="clip0_1904_52473">
<rect width="18" height="18" fill="white"/>
</clipPath>
</defs>
</svg>
