<svg width="34" height="34" viewBox="0 0 34 34" fill="none" xmlns="http://www.w3.org/2000/svg">
<path d="M0 3C0 1.34315 1.34315 0 3 0H34V34H3C1.34315 34 0 32.6569 0 31V3Z" fill="url(#paint0_linear_903_15525)"/>
<g clip-path="url(#clip0_903_15525)">
<path d="M12.97 12.0933C12.7104 11.8335 12.2892 11.8335 12.0296 12.0933C11.0658 13.0571 10.5921 14.3998 10.7297 15.7773C10.7641 16.1205 11.0532 16.3763 11.3908 16.3763C11.4129 16.3763 11.4353 16.3751 11.4575 16.3729C11.823 16.3364 12.0897 16.0103 12.0531 15.645C11.9552 14.666 12.2895 13.7142 12.97 13.0336C13.2298 12.7741 13.2298 12.3528 12.97 12.0933Z" fill="white"/>
<path d="M15.6035 8C11.4109 8 8 11.4109 8 15.6035C8 19.796 11.4109 23.2069 15.6035 23.2069C19.796 23.2069 23.2069 19.796 23.2069 15.6035C23.2069 11.4109 19.796 8 15.6035 8ZM15.6035 21.8768C12.1442 21.8768 9.33007 19.0627 9.33007 15.6035C9.33007 12.1442 12.1442 9.33007 15.6035 9.33007C19.0625 9.33007 21.8768 12.1442 21.8768 15.6035C21.8768 19.0627 19.0627 21.8768 15.6035 21.8768Z" fill="white"/>
<path d="M25.8051 24.8633L20.9726 20.0308C20.7128 19.771 20.2921 19.771 20.0323 20.0308C19.7725 20.2904 19.7725 20.7116 20.0323 20.9711L24.8648 25.8036C24.9947 25.9335 25.1647 25.9985 25.335 25.9985C25.5052 25.9985 25.6752 25.9335 25.8051 25.8036C26.0649 25.5441 26.0649 25.1229 25.8051 24.8633Z" fill="white"/>
</g>
<defs>
<linearGradient id="paint0_linear_903_15525" x1="0" y1="34" x2="34" y2="0" gradientUnits="userSpaceOnUse">
<stop stop-color="#3FA9F5"/>
<stop offset="1" stop-color="#E5FACA"/>
</linearGradient>
<clipPath id="clip0_903_15525">
<rect width="18" height="18" fill="white" transform="translate(8 8)"/>
</clipPath>
</defs>
</svg>
