<svg width="30" height="30" viewBox="0 0 30 30" fill="none" xmlns="http://www.w3.org/2000/svg">
<g clip-path="url(#clip0_1422_76904)">
<path d="M2.72727 0C1.22816 0 0 1.22816 0 2.72727V6.81818H1.36364H28.6364V20.4545C28.6364 21.2218 28.04 21.8182 27.2727 21.8182H17.0348C17.0411 21.7016 17.0455 21.5847 17.0455 21.468C17.0455 18.9824 15.621 16.7532 13.4526 15.6765C13.9927 15.0275 14.3182 14.1943 14.3182 13.2888C14.3182 11.2291 12.6328 9.54545 10.5722 9.54545C8.51156 9.54545 6.82484 11.2291 6.82484 13.2888C6.82484 14.1943 7.15129 15.0274 7.69176 15.6765C5.52345 16.7534 4.09757 18.9824 4.09757 21.468C4.09757 21.5848 4.10173 21.7016 4.10822 21.8182H2.72727C1.96003 21.8182 1.36364 21.2218 1.36364 20.4545V8.18182H0V20.4545C0 21.9537 1.22816 23.1818 2.72727 23.1818H27.2727C28.7718 23.1818 30 21.9537 30 20.4545V2.72727C30 1.22816 28.7718 0 27.2727 0H2.72727ZM2.72727 1.36364H27.2727C28.04 1.36364 28.6364 1.96003 28.6364 2.72727V5.45455H1.36364V2.72727C1.36364 1.96003 1.96003 1.36364 2.72727 1.36364ZM10.5722 10.9091C11.8966 10.9091 12.9545 11.9668 12.9545 13.2888C12.9545 14.6108 11.8966 15.6685 10.5722 15.6685C9.24779 15.6685 8.18848 14.6108 8.18848 13.2888C8.18848 11.9668 9.24779 10.9091 10.5722 10.9091ZM8.91158 16.642C9.4129 16.8916 9.97674 17.0321 10.5722 17.0321C11.1676 17.0321 11.7316 16.8916 12.2328 16.642C14.2891 17.3465 15.6818 19.2756 15.6818 21.468C15.6818 21.5849 15.6766 21.7015 15.6685 21.8182H5.47452C5.46639 21.7016 5.4612 21.585 5.4612 21.468C5.4612 19.2752 6.8551 17.3463 8.91158 16.642Z" fill="#3FA9F5"/>
<path d="M6.81818 24.5469C5.55552 24.5469 4.48713 25.4209 4.18146 26.5923H0V27.956H4.18146C4.48713 29.1274 5.55552 30.0014 6.81818 30.0014C8.08123 30.0014 9.15226 29.1279 9.45756 27.956H30V26.5923H9.45756C9.15226 25.4204 8.08123 24.5469 6.81818 24.5469ZM6.81818 25.9105C7.57937 25.9105 8.18182 26.513 8.18182 27.2741C8.18182 28.0353 7.57937 28.6378 6.81818 28.6378C6.05699 28.6378 5.45455 28.0353 5.45455 27.2741C5.45455 26.513 6.05699 25.9105 6.81818 25.9105Z" fill="#3FA9F5"/>
<path d="M20.1052 9.63289C20.0014 9.57511 19.8842 9.54548 19.7654 9.54693C19.6465 9.54837 19.5302 9.58085 19.4277 9.64114C19.3253 9.70143 19.2405 9.78743 19.1815 9.89063C19.1226 9.99383 19.0917 10.1106 19.0918 10.2295V17.0477C19.0917 17.1665 19.1226 17.2833 19.1815 17.3865C19.2405 17.4897 19.3253 17.5757 19.4277 17.636C19.5302 17.6963 19.6465 17.7288 19.7654 17.7302C19.8842 17.7317 20.0014 17.702 20.1052 17.6443L26.2416 14.2352C26.3481 14.1762 26.4369 14.0897 26.4988 13.9848C26.5606 13.8799 26.5932 13.7604 26.5932 13.6386C26.5932 13.5168 26.5606 13.3972 26.4988 13.2923C26.4369 13.1874 26.3481 13.101 26.2416 13.042L20.1052 9.63289ZM20.4554 11.3894L24.5051 13.6386L20.4554 15.8891V11.3894Z" fill="#3FA9F5"/>
<path d="M25.9082 2.72656V4.0902H27.2718V2.72656H25.9082Z" fill="#3FA9F5"/>
<path d="M23.1816 2.72656V4.0902H24.5453V2.72656H23.1816Z" fill="#3FA9F5"/>
<path d="M20.4531 2.72656V4.0902H21.8168V2.72656H20.4531Z" fill="#3FA9F5"/>
<path d="M17.7266 2.72656V4.0902H19.0902V2.72656H17.7266Z" fill="#3FA9F5"/>
</g>
<defs>
<clipPath id="clip0_1422_76904">
<rect width="30" height="30" fill="white"/>
</clipPath>
</defs>
</svg>
