<svg width="30" height="30" viewBox="0 0 30 30" fill="none" xmlns="http://www.w3.org/2000/svg">
<g clip-path="url(#clip0_1422_76852)">
<path d="M25.6066 4.39342C22.7735 1.56029 19.0066 0 15 0C10.9934 0 7.22654 1.56029 4.39336 4.39342C1.56029 7.22654 0 10.9934 0 15C0 19.0066 1.56029 22.7735 4.39336 25.6066C7.22654 28.4397 10.9934 30 15 30C19.0066 30 22.7735 28.4397 25.6066 25.6066C28.4397 22.7735 30 19.0066 30 15C30 10.9934 28.4397 7.22654 25.6066 4.39342ZM15 28.2422C11.4349 28.2422 8.19481 26.8256 5.8118 24.5262C7.10227 20.5832 10.8098 17.8711 15 17.8711C19.1902 17.8711 22.8977 20.5832 24.1883 24.5263C21.8052 26.8256 18.5651 28.2422 15 28.2422ZM10.6055 11.7188C10.6055 9.29561 12.5769 7.32422 15 7.32422C17.4231 7.32422 19.3945 9.29561 19.3945 11.7188C19.3945 14.1419 17.4231 16.1133 15 16.1133C12.5769 16.1133 10.6055 14.1419 10.6055 11.7188ZM25.5082 23.0481C24.215 20.0226 21.6759 17.7237 18.6072 16.6995C20.1482 15.5803 21.1523 13.7647 21.1523 11.7188C21.1523 8.32635 18.3924 5.56641 15 5.56641C11.6076 5.56641 8.84766 8.32635 8.84766 11.7188C8.84766 13.7647 9.85178 15.5803 11.3929 16.6995C8.32406 17.7237 5.78496 20.0226 4.4918 23.0481C2.77816 20.816 1.75781 18.0251 1.75781 15C1.75781 7.69822 7.69822 1.75781 15 1.75781C22.3018 1.75781 28.2422 7.69822 28.2422 15C28.2422 18.0251 27.2218 20.816 25.5082 23.0481Z" fill="#3FA9F5"/>
</g>
<defs>
<clipPath id="clip0_1422_76852">
<rect width="30" height="30" fill="white"/>
</clipPath>
</defs>
</svg>
