<svg width="22" height="22" viewBox="0 0 22 22" fill="none" xmlns="http://www.w3.org/2000/svg">
<path d="M10.8 0.200012C16.767 0.200012 21.6 5.03301 21.6 11C21.6 16.967 16.767 21.8 10.8 21.8C4.833 21.8 0 16.967 0 11C0 5.03301 4.833 0.200012 10.8 0.200012ZM10.8 19.1C15.2685 19.1 18.9 15.4685 18.9 11C18.9 6.53151 15.2685 2.90001 10.8 2.90001C6.3315 2.90001 2.7 6.53151 2.7 11C2.7 15.4685 6.3315 19.1 10.8 19.1ZM9.8415 11.9585C9.936 12.026 10.0305 12.0935 10.152 12.161L10.125 12.188L16.2 15.05L12.1095 10.7435L10.8 4.25001L9.4905 10.7435H9.504C9.504 10.7705 9.4905 10.811 9.477 10.865C9.4635 10.919 9.45 10.9595 9.45 11C9.45 11.378 9.585 11.702 9.8415 11.9585Z" fill="white"/>
</svg>
