<svg width="58" height="58" viewBox="0 0 58 58" fill="none" xmlns="http://www.w3.org/2000/svg">
<path fill-rule="evenodd" clip-rule="evenodd" d="M29.011 54.3747C43.0228 54.3747 54.375 43.0225 54.375 29.011C54.375 14.9772 43.0228 3.625 29.011 3.625C14.9995 3.625 3.625 14.9772 3.625 29.011C3.625 43.0225 14.9995 54.3747 29.011 54.3747Z" fill="url(#paint0_linear_1_13570)"/>
<path fill-rule="evenodd" clip-rule="evenodd" d="M15.4465 42.3968C17.0453 43.9951 18.9043 45.3098 20.9438 46.2849L15.4465 33.6816L10.8654 23.1785C10.262 25.011 9.94919 26.9775 9.94919 29.0111C9.94919 34.2179 12.0498 38.9554 15.4465 42.3968V42.3968ZM42.5753 47.2684C48.1396 43.1343 51.7598 36.4969 51.7598 29.0111C51.7598 21.5249 48.1396 14.8879 42.5753 10.7313C38.7763 7.91564 34.0838 6.23962 29.0111 6.23962C23.9383 6.23962 19.2455 7.91564 15.4465 10.7313C9.88215 14.8879 6.26196 21.5249 6.26196 29.0111C6.26196 36.4969 9.88215 43.1343 15.4465 47.2684C19.2455 50.0838 23.9383 51.7601 29.0111 51.7601C34.0838 51.7601 38.7763 50.0841 42.5753 47.2684ZM42.5753 15.6253C43.2526 16.3032 43.873 17.0357 44.4304 17.8153L42.5753 22.1059L35.581 38.1733L31.9608 29.9273H26.0613L22.4411 38.1733L15.4465 22.1059L13.5917 17.8153C14.1489 17.0356 14.7692 16.3032 15.4465 15.6253C16.607 14.4405 17.9225 13.4181 19.3572 12.5861L25.9719 27.9831H32.0499L38.6646 12.5861C40.0993 13.4181 41.4148 14.4405 42.5753 15.6253V15.6253ZM42.5753 33.6816L47.1564 23.1785C47.7601 25.011 48.0729 26.9775 48.0729 29.0111C48.0729 34.2176 45.9723 38.9554 42.5753 42.3968C40.9766 43.9951 39.1178 45.3098 37.0783 46.2849L42.5753 33.6816V33.6816ZM29.0111 35.1564L34.3299 47.2908C32.6022 47.7962 30.8112 48.0521 29.0111 48.0506C27.2111 48.0521 25.4201 47.7962 23.6925 47.2908L29.0111 35.1564ZM29.0111 23.2232L34.4863 10.7537C32.7653 10.2174 30.9105 9.9492 29.0111 9.9492C27.1116 9.9492 25.2791 10.2174 23.5361 10.7537L29.0111 23.2232Z" fill="white"/>
<defs>
<linearGradient id="paint0_linear_1_13570" x1="3.63281" y1="3.6328" x2="54.3669" y2="54.3669" gradientUnits="userSpaceOnUse">
<stop stop-color="#2088FA"/>
<stop offset="1" stop-color="#032B5C"/>
</linearGradient>
</defs>
</svg>
