<svg width="30" height="30" viewBox="0 0 30 30" fill="none" xmlns="http://www.w3.org/2000/svg">
<g clip-path="url(#clip0_1422_76860)">
<path d="M14.9998 0C6.72873 0 0 6.72873 0 14.9997C0 23.2707 6.72873 29.9989 14.9998 29.9989C23.2708 29.9989 30 23.2707 30 14.9997C30 6.72867 23.2707 0 14.9998 0ZM14.9998 28.0796C7.78746 28.0796 1.91982 22.212 1.91982 14.9997C1.91982 7.7874 7.7874 1.91982 14.9998 1.91982C22.2126 1.91982 28.0802 7.78746 28.0802 14.9998C28.0802 22.2121 22.2126 28.0796 14.9998 28.0796Z" fill="#3FA9F5"/>
<path d="M19.4233 16.2628C19.9531 16.2628 20.3831 15.8323 20.3831 15.3024C20.3831 14.7726 19.9531 14.3425 19.4227 14.3425H15.9601V14.1137L19.6624 8.88208C19.9692 8.44942 19.8668 7.85042 19.4342 7.54415C19.0005 7.23683 18.4025 7.3403 18.0957 7.77296L15.0106 12.132L12.0128 7.7828C11.7117 7.34599 11.1137 7.23577 10.6774 7.53735C10.2412 7.83841 10.1309 8.43589 10.432 8.87271L14.0403 14.1075V14.3425H10.5771C10.0472 14.3425 9.61719 14.772 9.61719 15.3024C9.61719 15.8328 10.0467 16.2628 10.5771 16.2628H14.0403V18.2035H10.5771C10.0472 18.2035 9.61719 18.6335 9.61719 19.1639C9.61719 19.6943 10.0467 20.1243 10.5771 20.1243H14.0403V21.6692C14.0403 22.1996 14.4697 22.6296 15.0001 22.6296C15.5305 22.6296 15.96 22.1996 15.96 21.6697V20.1243H19.4232C19.9531 20.1243 20.3831 19.6943 20.3831 19.1639C20.3831 18.6335 19.9531 18.2035 19.4227 18.2035H15.96V16.2628H19.4233Z" fill="#3FA9F5"/>
</g>
<defs>
<clipPath id="clip0_1422_76860">
<rect width="30" height="30" fill="white"/>
</clipPath>
</defs>
</svg>
