<svg width="20" height="20" viewBox="0 0 20 20" fill="none" xmlns="http://www.w3.org/2000/svg">
<g clip-path="url(#clip0_1904_5922)">
<path d="M18.2749 16.8692L16.8441 14.4842C16.1832 13.3834 15.8341 12.1225 15.8341 10.8392V8.75C15.8341 6.1125 14.0741 3.88168 11.6674 3.1625V1.66668C11.6674 0.7475 10.9199 0 10.0007 0C9.08152 0 8.33402 0.7475 8.33402 1.66668V3.1625C5.92738 3.88168 4.16738 6.1125 4.16738 8.75V10.8392C4.16738 12.1225 3.8182 13.3825 3.1582 14.4834L1.72738 16.8684C1.64988 16.9975 1.6482 17.1575 1.72238 17.2884C1.79656 17.4192 1.93406 17.5 2.08406 17.5H17.9174C18.0674 17.5 18.2057 17.4192 18.2799 17.2892C18.3541 17.1592 18.3516 16.9975 18.2749 16.8692Z" fill="#666666"/>
<path d="M7.375 18.3359C7.845 19.3176 8.84 20.0026 9.99914 20.0026C11.1583 20.0026 12.1533 19.3176 12.6233 18.3359H7.375Z" fill="#666666"/>
</g>
<defs>
<clipPath id="clip0_1904_5922">
<rect width="20" height="20" fill="white"/>
</clipPath>
</defs>
</svg>
