<svg width="20" height="20" viewBox="0 0 20 20" fill="none" xmlns="http://www.w3.org/2000/svg">
<path d="M17.4114 1.17969H15.6467V2.94439C15.6467 3.29733 15.3526 3.53263 15.0585 3.53263C14.7644 3.53263 14.4702 3.29733 14.4702 2.94439V1.17969H5.05848V2.94439C5.05848 3.29733 4.76436 3.53263 4.47024 3.53263C4.17613 3.53263 3.88201 3.29733 3.88201 2.94439V1.17969H2.1173C1.23495 1.17969 0.587891 1.94439 0.587891 2.94439V5.06204H19.4114V2.94439C19.4114 1.94439 18.3526 1.17969 17.4114 1.17969ZM0.587891 6.29733V17.062C0.587891 18.1209 1.23495 18.8267 2.17613 18.8267H17.4702C18.4114 18.8267 19.4702 18.062 19.4702 17.062V6.29733H0.587891ZM5.82318 16.1797H4.41142C4.17613 16.1797 3.94083 16.0032 3.94083 15.7091V14.2385C3.94083 14.0032 4.1173 13.7679 4.41142 13.7679H5.88201C6.1173 13.7679 6.3526 13.9444 6.3526 14.2385V15.7091C6.29377 16.0032 6.1173 16.1797 5.82318 16.1797ZM5.82318 10.8856H4.41142C4.17613 10.8856 3.94083 10.7091 3.94083 10.415V8.94439C3.94083 8.7091 4.1173 8.4738 4.41142 8.4738H5.88201C6.1173 8.4738 6.3526 8.65028 6.3526 8.94439V10.415C6.29377 10.7091 6.1173 10.8856 5.82318 10.8856ZM10.5291 16.1797H9.05848C8.82318 16.1797 8.58789 16.0032 8.58789 15.7091V14.2385C8.58789 14.0032 8.76436 13.7679 9.05848 13.7679H10.5291C10.7644 13.7679 10.9997 13.9444 10.9997 14.2385V15.7091C10.9997 16.0032 10.8232 16.1797 10.5291 16.1797ZM10.5291 10.8856H9.05848C8.82318 10.8856 8.58789 10.7091 8.58789 10.415V8.94439C8.58789 8.7091 8.76436 8.4738 9.05848 8.4738H10.5291C10.7644 8.4738 10.9997 8.65028 10.9997 8.94439V10.415C10.9997 10.7091 10.8232 10.8856 10.5291 10.8856ZM15.235 16.1797H13.7644C13.5291 16.1797 13.2938 16.0032 13.2938 15.7091V14.2385C13.2938 14.0032 13.4702 13.7679 13.7644 13.7679H15.235C15.4702 13.7679 15.7055 13.9444 15.7055 14.2385V15.7091C15.7055 16.0032 15.5291 16.1797 15.235 16.1797ZM15.235 10.8856H13.7644C13.5291 10.8856 13.2938 10.7091 13.2938 10.415V8.94439C13.2938 8.7091 13.4702 8.4738 13.7644 8.4738H15.235C15.4702 8.4738 15.7055 8.65028 15.7055 8.94439V10.415C15.7055 10.7091 15.5291 10.8856 15.235 10.8856Z" fill="#666666"/>
</svg>
