<svg width="20" height="20" viewBox="0 0 20 20" fill="none" xmlns="http://www.w3.org/2000/svg">
<path d="M2.78523 10.6562H8.16034C8.80723 10.6562 9.32923 11.1947 9.32923 11.8634V17.17C9.32923 17.8382 8.80723 18.3771 8.16034 18.3771H2.78523C2.13701 18.3771 1.61523 17.8382 1.61523 17.17V11.8634C1.61523 11.1947 2.13701 10.6562 2.78523 10.6562Z" fill="#666666"/>
<path d="M2.78719 1.57031H8.16229C8.80918 1.57031 9.33118 2.10898 9.33118 2.77742V8.08409C9.33118 8.75254 8.80918 9.2912 8.16229 9.2912H2.78719C2.13896 9.2912 1.61719 8.75254 1.61719 8.08409V2.77742C1.61719 2.10898 2.13896 1.57031 2.78719 1.57031Z" fill="#666666"/>
<path d="M11.8603 1.57031H17.2352C17.8834 1.57031 18.4043 2.10898 18.4043 2.77742V8.08409C18.4043 8.75254 17.8834 9.2912 17.2352 9.2912H11.8603C11.2121 9.2912 10.6914 8.75254 10.6914 8.08409V2.77742C10.6916 2.10898 11.2121 1.57031 11.8603 1.57031Z" fill="#666666"/>
<path d="M11.8603 10.6562H17.2352C17.8834 10.6562 18.4043 11.1947 18.4043 11.8634V17.17C18.4043 17.8382 17.8834 18.3771 17.2352 18.3771H11.8603C11.2121 18.3771 10.6914 17.8382 10.6914 17.17V11.8634C10.6916 11.1947 11.2121 10.6562 11.8603 10.6562Z" fill="#666666"/>
</svg>
