<svg width="20" height="20" viewBox="0 0 20 20" fill="none" xmlns="http://www.w3.org/2000/svg">
<g clip-path="url(#clip0_1904_5929)">
<path d="M13.5624 11.7669L10.7738 9.67547V5.41523C10.7738 4.98687 10.4276 4.64062 9.99922 4.64062C9.57086 4.64062 9.22461 4.98687 9.22461 5.41523V10.0628C9.22461 10.3068 9.33926 10.5369 9.53445 10.6825L12.6328 13.0063C12.7722 13.1109 12.9349 13.1612 13.0968 13.1612C13.333 13.1612 13.5654 13.0551 13.7173 12.8506C13.9745 12.5089 13.9048 12.0233 13.5624 11.7669Z" fill="#666666"/>
<path d="M10 0C4.48566 0 0 4.48566 0 10C0 15.5143 4.48566 20 10 20C15.5143 20 20 15.5143 20 10C20 4.48566 15.5143 0 10 0ZM10 18.4508C5.34082 18.4508 1.54918 14.6592 1.54918 10C1.54918 5.34082 5.34082 1.54918 10 1.54918C14.66 1.54918 18.4508 5.34082 18.4508 10C18.4508 14.6592 14.6592 18.4508 10 18.4508Z" fill="#666666"/>
</g>
<defs>
<clipPath id="clip0_1904_5929">
<rect width="20" height="20" fill="white"/>
</clipPath>
</defs>
</svg>
