<svg width="20" height="20" viewBox="0 0 20 20" fill="none" xmlns="http://www.w3.org/2000/svg">
<g clip-path="url(#clip0_1904_5873)">
<path d="M11.6714 12.2536C11.1739 12.5853 10.5959 12.7606 10 12.7606C9.40414 12.7606 8.82617 12.5853 8.32859 12.2536L0.133164 6.78977C0.0876953 6.75945 0.0433984 6.72785 0 6.69535V15.6484C0 16.6749 0.833008 17.4895 1.84113 17.4895H18.1588C19.1853 17.4895 20 16.6565 20 15.6484V6.69531C19.9565 6.72789 19.9121 6.75957 19.8665 6.78992L11.6714 12.2536Z" fill="#666666"/>
<path d="M0.783203 5.81219L8.97863 11.276C9.28887 11.4829 9.64441 11.5863 9.99996 11.5863C10.3555 11.5863 10.7111 11.4828 11.0214 11.276L19.2168 5.81219C19.7072 5.48543 20 4.93856 20 4.34832C20 3.33344 19.1743 2.50781 18.1595 2.50781H1.84051C0.825664 2.50785 0 3.33348 0 4.3493C0 4.93856 0.292812 5.48543 0.783203 5.81219Z" fill="#666666"/>
</g>
<defs>
<clipPath id="clip0_1904_5873">
<rect width="20" height="20" fill="white"/>
</clipPath>
</defs>
</svg>
