<svg width="20" height="20" viewBox="0 0 20 20" fill="none" xmlns="http://www.w3.org/2000/svg">
<path d="M17.1131 10.6797H15.5664C15.7241 11.1113 15.8102 11.5771 15.8102 12.0627V17.9084C15.8102 18.1108 15.775 18.3051 15.7109 18.4858H18.2679C19.2231 18.4858 20.0002 17.7087 20.0002 16.7535V13.5668C20.0002 11.9748 18.7051 10.6797 17.1131 10.6797Z" fill="#666666"/>
<path d="M4.19005 12.0627C4.19005 11.5771 4.27618 11.1113 4.43384 10.6797H2.88712C1.29516 10.6797 0 11.9748 0 13.5668V16.7536C0 17.7087 0.777072 18.4858 1.73227 18.4858H4.28938C4.22528 18.3051 4.19005 18.1108 4.19005 17.9084V12.0627Z" fill="#666666"/>
<path d="M11.7688 9.17188H8.23282C6.64086 9.17188 5.3457 10.467 5.3457 12.059V17.9047C5.3457 18.2236 5.60422 18.4821 5.92313 18.4821H14.0785C14.3974 18.4821 14.656 18.2236 14.656 17.9047V12.059C14.656 10.467 13.3608 9.17188 11.7688 9.17188Z" fill="#666666"/>
<path d="M9.99946 1.51562C8.08492 1.51562 6.52734 3.07321 6.52734 4.98778C6.52734 6.28642 7.2441 7.4206 8.30262 8.01607C8.80469 8.29849 9.38352 8.4599 9.99946 8.4599C10.6154 8.4599 11.1942 8.29849 11.6963 8.01607C12.7549 7.4206 13.4716 6.28638 13.4716 4.98778C13.4716 3.07324 11.914 1.51562 9.99946 1.51562Z" fill="#666666"/>
<path d="M3.90333 4.75C2.47149 4.75 1.30664 5.91485 1.30664 7.34668C1.30664 8.77852 2.47149 9.94337 3.90333 9.94337C4.26653 9.94337 4.61239 9.86814 4.92657 9.7329C5.46977 9.49903 5.91767 9.08505 6.19481 8.56649C6.38935 8.20255 6.50001 7.78735 6.50001 7.34668C6.50001 5.91489 5.33516 4.75 3.90333 4.75Z" fill="#666666"/>
<path d="M16.0967 4.75C14.6648 4.75 13.5 5.91485 13.5 7.34668C13.5 7.78739 13.6107 8.20259 13.8052 8.56649C14.0823 9.08509 14.5302 9.49907 15.0734 9.7329C15.3876 9.86814 15.7335 9.94337 16.0967 9.94337C17.5285 9.94337 18.6934 8.77852 18.6934 7.34668C18.6934 5.91485 17.5285 4.75 16.0967 4.75Z" fill="#666666"/>
</svg>
