<svg width="20" height="20" viewBox="0 0 20 20" fill="none" xmlns="http://www.w3.org/2000/svg">
<path d="M18.3321 4.24732C17.5877 2.71954 15.4432 1.46954 12.9488 2.19732C11.7568 2.54162 10.7169 3.27998 9.99879 4.29176C9.28073 3.27998 8.24076 2.54162 7.04879 2.19732C4.54879 1.48065 2.4099 2.71954 1.66545 4.24732C0.621009 6.38621 1.05434 8.79176 2.95434 11.3973C4.44323 13.4362 6.57101 15.5029 9.6599 17.9029C9.75752 17.979 9.87777 18.0204 10.0016 18.0204C10.1254 18.0204 10.2456 17.979 10.3432 17.9029C13.4266 15.5084 15.5599 13.4584 17.0488 11.3973C18.9432 8.79176 19.3766 6.38621 18.3321 4.24732Z" fill="#666666"/>
</svg>
