<svg width="20" height="20" viewBox="0 0 20 20" fill="none" xmlns="http://www.w3.org/2000/svg">
<g clip-path="url(#clip0_1904_5915)">
<path d="M10.9174 0.835938C8.90214 0.845746 6.9471 1.52379 5.35856 2.76384C3.77001 4.00388 2.6377 5.73587 2.13903 7.68844L1.52903 6.76594C1.47128 6.66936 1.39457 6.58548 1.30352 6.51935C1.21248 6.45322 1.10898 6.40621 0.999273 6.38117C0.889567 6.35612 0.775925 6.35356 0.665201 6.37362C0.554476 6.39369 0.448962 6.43597 0.355022 6.49792C0.261082 6.55988 0.180663 6.64021 0.118612 6.73408C0.0565619 6.82796 0.0141667 6.93343 -0.00601687 7.04413C-0.0262004 7.15483 -0.0237541 7.26848 0.00117448 7.37821C0.0261031 7.48794 0.0729975 7.59149 0.13903 7.68261L1.97236 10.4609C2.09971 10.6391 2.28747 10.765 2.50069 10.8151C2.71842 10.8583 2.9444 10.815 3.13069 10.6943L5.88069 8.84178C5.97551 8.78256 6.05744 8.70488 6.12162 8.61335C6.18579 8.52182 6.2309 8.41832 6.25425 8.309C6.27759 8.19968 6.27871 8.08677 6.25752 7.97701C6.23634 7.86725 6.19329 7.76288 6.13093 7.6701C6.06857 7.57732 5.98819 7.49804 5.89456 7.43696C5.80093 7.37589 5.69597 7.33428 5.58593 7.31461C5.47589 7.29494 5.36301 7.29761 5.25402 7.32246C5.14504 7.34732 5.04216 7.39384 4.95153 7.45927L3.70069 8.30261C4.03359 6.95127 4.73963 5.72071 5.73826 4.75133C6.73689 3.78195 7.98789 3.11279 9.34852 2.8202C10.7092 2.52761 12.1246 2.62336 13.4335 3.09654C14.7423 3.56972 15.8918 4.40127 16.7508 5.49631C17.6097 6.59135 18.1436 7.90579 18.2915 9.28966C18.4393 10.6735 18.1953 12.0711 17.587 13.3229C16.9788 14.5747 16.031 15.6304 14.8517 16.3694C13.6724 17.1084 12.3091 17.5011 10.9174 17.5026C9.72431 17.4994 8.54967 17.2081 7.49331 16.6536C6.43695 16.0991 5.53011 15.2977 4.84986 14.3176C4.78894 14.2241 4.70984 14.1437 4.61726 14.0813C4.52468 14.0189 4.42051 13.9758 4.31093 13.9544C4.20135 13.9331 4.0886 13.934 3.97937 13.957C3.87014 13.9801 3.76666 14.0249 3.67507 14.0887C3.58348 14.1525 3.50565 14.2341 3.4462 14.3286C3.38675 14.4231 3.34689 14.5286 3.329 14.6388C3.3111 14.749 3.31553 14.8616 3.34202 14.9701C3.3685 15.0786 3.41651 15.1806 3.48319 15.2701C4.58908 16.8644 6.17722 18.0619 8.0142 18.6867C9.85118 19.3114 11.8401 19.3304 13.6887 18.7409C15.5373 18.1514 17.148 16.9844 18.2842 15.4115C19.4203 13.8387 20.022 11.9428 20.0007 10.0026C20.0089 7.58337 19.0572 5.25964 17.3543 3.54118C15.6515 1.82271 13.3366 0.849826 10.9174 0.835938Z" fill="#666666"/>
<path d="M10.8333 4.96094C10.6123 4.96094 10.4004 5.04874 10.2441 5.20502C10.0878 5.3613 10 5.57326 10 5.79427V10.0026C10.0035 10.2229 10.0909 10.4336 10.2442 10.5918L12.7442 13.1143C12.901 13.2687 13.112 13.3557 13.3321 13.3568C13.5523 13.3579 13.7641 13.273 13.9225 13.1201C14.0794 12.9645 14.168 12.7529 14.169 12.532C14.1699 12.311 14.0831 12.0987 13.9275 11.9418L11.6667 9.66011V5.79427C11.6667 5.57326 11.5789 5.3613 11.4226 5.20502C11.2663 5.04874 11.0543 4.96094 10.8333 4.96094Z" fill="#666666"/>
</g>
<defs>
<clipPath id="clip0_1904_5915">
<rect width="20" height="20" fill="white"/>
</clipPath>
</defs>
</svg>
