<svg width="20" height="20" viewBox="0 0 20 20" fill="none" xmlns="http://www.w3.org/2000/svg">
<path d="M2.08332 8.33594C0.935001 8.33594 0 9.27094 0 10.4193V17.0859C0 18.2343 0.935001 19.1693 2.08332 19.1693H4.58332C5.0525 19.1693 5.48414 19.0109 5.83332 18.7476V8.33594H2.08332Z" fill="#666666"/>
<path d="M20.0013 11.4583C20.0013 10.9575 19.803 10.4908 19.4588 10.1466C19.848 9.72083 20.0463 9.14997 19.9921 8.55583C19.8946 7.49665 18.9404 6.66664 17.8188 6.66664H12.6713C12.9263 5.89246 13.3346 4.47332 13.3346 3.33332C13.3346 1.52582 11.7988 0 10.8346 0C9.96879 0 9.35043 0.4875 9.32379 0.5075C9.22547 0.58668 9.16797 0.70668 9.16797 0.833321V3.65914L6.76797 8.85833L6.66797 8.90915V17.8408C7.34629 18.1608 8.20461 18.3333 8.75129 18.3333H16.4005C17.308 18.3333 18.1022 17.7217 18.2888 16.8775C18.3846 16.4433 18.3288 16.0058 18.138 15.6258C18.7538 15.3158 19.168 14.6817 19.168 13.9583C19.168 13.6633 19.1005 13.3808 18.9722 13.125C19.588 12.815 20.0013 12.1808 20.0013 11.4583Z" fill="#666666"/>
</svg>
