<svg width="20" height="20" viewBox="0 0 20 20" fill="none" xmlns="http://www.w3.org/2000/svg">
<g clip-path="url(#clip0_1904_5848)">
<path d="M8.54172 9.375H0.625C0.279999 9.375 0 9.095 0 8.75C0 8.405 0.279999 8.125 0.625 8.125H8.54172C8.88672 8.125 9.16672 8.405 9.16672 8.75C9.16672 9.095 8.88672 9.375 8.54172 9.375Z" fill="#666666"/>
<path d="M5.41782 12.5006C5.25775 12.5006 5.09784 12.4397 4.97607 12.3174C4.73193 12.0731 4.73193 11.6772 4.97607 11.4331L7.65948 8.74985L4.97607 6.06735C4.73193 5.82306 4.73193 5.42725 4.97607 5.18311C5.22021 4.93896 5.61603 4.93896 5.86032 5.18311L8.98532 8.30811C9.22946 8.55225 9.22946 8.94806 8.98532 9.19235L5.86032 12.3174C5.73779 12.4397 5.57773 12.5006 5.41782 12.5006Z" fill="#666666"/>
<path d="M13.3345 19.9968C12.4153 19.9968 11.668 19.2492 11.668 18.33V3.33005C11.668 2.61761 12.1213 1.98178 12.7962 1.74756L17.8029 0.0783974C18.9229 -0.264925 20.0013 0.565916 20.0013 1.66348V16.6635C20.0013 17.3752 19.5479 18.0101 18.8738 18.2451L13.8654 19.9151C13.6829 19.9717 13.5138 19.9968 13.3345 19.9968ZM18.3345 1.24676C18.2804 1.24676 18.2346 1.25348 18.1855 1.26843L13.1996 2.93088C13.0362 2.98764 12.918 3.15259 12.918 3.33005V18.33C12.918 18.6143 13.2262 18.806 13.4838 18.7251L18.4696 17.0627C18.6321 17.0059 18.7513 16.8409 18.7513 16.6635V1.66348C18.7513 1.43429 18.5646 1.24676 18.3345 1.24676Z" fill="#666666"/>
<path d="M7.29297 4.16672C6.94797 4.16672 6.66797 3.88672 6.66797 3.54172V2.29172C6.66797 1.02753 7.69534 0 8.95953 0H18.3345C18.6795 0 18.9595 0.279999 18.9595 0.625C18.9595 0.970001 18.6795 1.25 18.3345 1.25H8.95953C8.38535 1.25 7.91797 1.71753 7.91797 2.29172V3.54172C7.91797 3.88672 7.63797 4.16672 7.29297 4.16672Z" fill="#666666"/>
<path d="M12.293 17.5027H8.95953C7.69534 17.5027 6.66797 16.4751 6.66797 15.2109V13.9609C6.66797 13.6159 6.94797 13.3359 7.29297 13.3359C7.63797 13.3359 7.91797 13.6159 7.91797 13.9609V15.2109C7.91797 15.7851 8.38535 16.2527 8.95953 16.2527H12.293C12.638 16.2527 12.918 16.5327 12.918 16.8777C12.918 17.2227 12.638 17.5027 12.293 17.5027Z" fill="#666666"/>
</g>
<defs>
<clipPath id="clip0_1904_5848">
<rect width="20" height="20" fill="white"/>
</clipPath>
</defs>
</svg>
