<svg width="20" height="20" viewBox="0 0 20 20" fill="none" xmlns="http://www.w3.org/2000/svg">
<path d="M18.1633 2.44531H1.83672C0.823945 2.44531 0 3.26926 0 4.28203V15.7106C0 16.7234 0.823945 17.5473 1.83672 17.5473H18.1633C19.1761 17.5473 20 16.7234 20 15.7106V4.28203C20 3.26926 19.1761 2.44531 18.1633 2.44531ZM8.42559 5.31805L12.5365 7.69148C12.9444 7.92695 12.9438 8.5168 12.5365 8.75187L8.42559 11.1254C8.02039 11.3593 7.50723 11.0692 7.50723 10.5952V5.84824C7.50723 5.37734 8.01828 5.08281 8.42559 5.31805ZM16.1225 14.6821H6.35012V14.754C6.35012 15.0921 6.07598 15.3663 5.73785 15.3663C5.39973 15.3663 5.12563 15.0921 5.12563 14.754V14.6821H3.87754C3.53941 14.6821 3.26531 14.408 3.26531 14.0699C3.26531 13.7318 3.53945 13.4577 3.87754 13.4577H5.12563V13.3858C5.12563 13.0477 5.39977 12.7736 5.73785 12.7736C6.07598 12.7736 6.35012 13.0477 6.35012 13.3858V13.4577H16.1225C16.4606 13.4577 16.7347 13.7318 16.7347 14.0699C16.7347 14.408 16.4606 14.6821 16.1225 14.6821Z" fill="#666666"/>
</svg>
